<svg width="12" height="10" viewBox="0 0 12 10" fill="none" xmlns="http://www.w3.org/2000/svg">
<path d="M11.52 9.12H0.48C0.352696 9.12 0.230606 9.06943 0.140589 8.97941C0.0505713 8.88939 0 8.7673 0 8.64V5.76C0 5.6327 0.0505713 5.51061 0.140589 5.42059C0.230606 5.33057 0.352696 5.28 0.48 5.28H11.52C11.6473 5.28 11.7694 5.33057 11.8594 5.42059C11.9494 5.51061 12 5.6327 12 5.76V8.64C12 8.7673 11.9494 8.88939 11.8594 8.97941C11.7694 9.06943 11.6473 9.12 11.52 9.12ZM0.96 8.16H11.04V6.24H0.96V8.16ZM6.72 4.32384H5.28C5.1527 4.32384 5.03061 4.27327 4.94059 4.18325C4.85057 4.09323 4.8 3.97114 4.8 3.84384V3.36H3.36V3.84C3.36 3.9673 3.30943 4.08939 3.21941 4.17941C3.12939 4.26943 3.0073 4.32 2.88 4.32H1.44C1.3127 4.32 1.19061 4.26943 1.10059 4.17941C1.01057 4.08939 0.96 3.9673 0.96 3.84V1.44C0.96 0.64608 1.60608 0 2.4 0H9.6C10.3939 0 11.04 0.64608 11.04 1.44V3.84C11.04 3.9673 10.9894 4.08939 10.8994 4.17941C10.8094 4.26943 10.6873 4.32 10.56 4.32H9.12C8.9927 4.32 8.87061 4.26943 8.78059 4.17941C8.69057 4.08939 8.64 3.9673 8.64 3.84V3.36H7.2V3.84384C7.2 3.97114 7.14943 4.09323 7.05941 4.18325C6.96939 4.27327 6.8473 4.32384 6.72 4.32384ZM5.76 3.36384L6.24 3.36C6.24 2.83056 6.67056 2.4 7.2 2.4H8.64C9.16944 2.4 9.6 2.83056 9.6 3.36H10.08V1.44C10.08 1.17552 9.86448 0.96 9.6 0.96H2.4C2.13552 0.96 1.92 1.17552 1.92 1.44V3.36H2.4C2.4 2.83056 2.83056 2.4 3.36 2.4H4.8C5.32944 2.4 5.76 2.83056 5.76 3.36V3.36384Z" fill="#6E6E6E"/>
</svg>
